<svg xmlns="http://www.w3.org/2000/svg" width="69" height="12" viewBox="0 0 69 12" fill="none"><path d="M11.0973 11.6605V2.08557L6.70245 11.6605H6.02271L1.63958 2.23793V11.6605H0.959839V0.38623H2.30759L6.74933 9.96116L11.0973 0.38623H12.4568V11.6605H11.0973Z" fill="#292728"></path><path d="M18.8321 11.6605V7.25393L13.9567 0.38623H15.5623L19.7931 6.17572L23.977 0.38623H24.7857L20.1916 6.77342V11.6488H18.8321V11.6605Z" fill="#292728"></path><path d="M27.1532 11.5902C26.6376 11.4144 26.1922 11.1917 25.8406 10.9339C25.4773 10.6878 25.2078 10.4417 24.9851 10.1838L25.4773 9.72678C26.2977 10.6761 27.4814 11.1566 29.0518 11.18C29.7784 11.18 30.3878 11.0863 30.8801 10.8753C31.3723 10.6644 31.7239 10.3831 31.97 10.0549C32.2161 9.70334 32.3333 9.34004 32.3333 8.92985C32.3333 8.47278 32.1692 8.09776 31.8762 7.79305C31.5715 7.50006 31.1731 7.24223 30.6808 7.04299C30.1886 6.82032 29.6612 6.6328 29.0987 6.44529C27.8916 6.04682 27.0126 5.66008 26.4501 5.28505C25.6297 4.73423 25.2078 4.00761 25.2078 3.1052C25.2078 2.23795 25.618 1.52305 26.4149 0.97223C27.2236 0.421408 28.2549 0.140137 29.5089 0.140137C30.0949 0.140137 30.634 0.233894 31.1262 0.421408C31.6184 0.597202 32.052 0.819875 32.4036 1.06599C32.7669 1.30038 33.0248 1.54649 33.224 1.75744L32.7201 2.21451L32.4974 2.00356C32.345 1.8512 32.1341 1.69885 31.8645 1.51133C31.595 1.33554 31.2551 1.15974 30.8684 1.01911C30.4699 0.878473 30.0363 0.808155 29.5323 0.808155C28.6416 0.808155 27.9267 0.97223 27.3993 1.32382C26.872 1.68713 26.6141 2.09731 26.6141 2.60126C26.6141 3.08176 26.7665 3.48023 27.0829 3.78494C27.3876 4.07793 27.7978 4.33576 28.29 4.55843C28.7823 4.76939 29.3096 4.96862 29.8839 5.14441C31.091 5.53116 31.9583 5.91791 32.5208 6.29294C33.3412 6.83204 33.7514 7.55865 33.7514 8.46107C33.7514 9.05877 33.5521 9.60959 33.142 10.1252C32.7435 10.6409 32.1927 11.0745 31.4778 11.391C30.7746 11.7074 29.9425 11.8715 29.0167 11.8715C28.29 11.8598 27.6806 11.766 27.1532 11.5902Z" fill="#292728"></path><path d="M44.0295 11.6605V6.36323H36.5993V11.6605H35.2515V0.38623H36.5993V5.6835H44.0295V0.38623H45.3773V11.6605H44.0295Z" fill="#292728"></path><path d="M49.7486 11.0743C48.8814 10.5469 48.1782 9.84374 47.6508 8.95304C47.1234 8.06235 46.8656 7.08963 46.8656 5.9997C46.8656 4.90978 47.1234 3.93705 47.6508 3.04636C48.1782 2.16739 48.8814 1.45249 49.7486 0.925108C50.6276 0.397725 51.5769 0.128174 52.6082 0.128174C53.6513 0.128174 54.6006 0.397725 55.4678 0.925108C56.3468 1.45249 57.0382 2.15567 57.5656 3.04636C58.093 3.93705 58.3625 4.90978 58.3625 5.9997C58.3625 7.08963 58.093 8.06235 57.5656 8.95304C57.0382 9.83202 56.3468 10.5469 55.4678 11.0743C54.6006 11.6017 53.6513 11.8595 52.6082 11.8595C51.5886 11.8595 50.6276 11.6017 49.7486 11.0743ZM54.8584 10.5118C55.503 10.0664 56.0069 9.44527 56.3585 8.66005C56.7218 7.88656 56.8976 6.99587 56.8976 5.9997C56.8976 4.51131 56.5108 3.28075 55.7256 2.30802C54.9287 1.33529 53.8974 0.831351 52.6199 0.819631C51.7878 0.819631 51.0378 1.0423 50.3932 1.48765C49.7486 1.93299 49.2447 2.55413 48.8814 3.33935C48.5181 4.11284 48.3306 5.00353 48.3306 5.9997C48.3306 6.99587 48.5063 7.88656 48.8814 8.66005C49.2447 9.44527 49.7369 10.0664 50.3815 10.5118C51.0143 10.9571 51.7644 11.1915 52.6199 11.1915C53.4755 11.1915 54.2138 10.9688 54.8584 10.5118Z" fill="#292728"></path><path d="M59.8626 11.6605V0.38623H64.8083C65.5115 0.38623 66.156 0.526866 66.742 0.808137C67.328 1.10113 67.7851 1.48787 68.1367 1.9801C68.4882 2.47232 68.6523 3.0583 68.6523 3.7146C68.6523 4.3709 68.4882 4.94516 68.1367 5.4491C67.7851 5.94133 67.328 6.3398 66.742 6.62107C66.1678 6.90234 65.5232 7.04297 64.8083 7.04297H61.2104V11.6605H59.8626ZM66.5076 5.63662C66.9647 5.14439 67.1991 4.51154 67.1991 3.7146C67.1991 2.91767 66.9647 2.27309 66.5076 1.78086C66.0506 1.30036 65.488 1.05425 64.82 1.05425H61.2221V6.35152H64.82C65.4763 6.36323 66.0506 6.12884 66.5076 5.63662Z" fill="#292728"></path></svg>