<svg width="85" height="18" viewBox="0 0 85 18" fill="none" xmlns="http://www.w3.org/2000/svg"><path d="M22.6723 4.6451L18.3353 1.0571C17.6453 0.475262 16.561 0.184343 15.6739 0.281316L3.05688 2.51169C1.6769 2.70564 0.691199 4.06326 0.888339 5.42088L2.36689 14.0515C2.56403 15.4091 3.94402 16.3788 5.324 16.1849L17.941 14.0515C18.9267 13.8575 19.7152 13.2757 20.2081 12.4999L23.0666 7.65126C23.8552 6.58456 23.5595 5.42088 22.6723 4.6451ZM10.8439 13.2757L8.97109 11.4332L12.3225 8.03915L8.87252 4.74207L10.7454 2.89959L16.1667 8.03915L10.8439 13.2757Z" fill="#72BF44"></path><path d="M34.008 7.16627L33.0223 6.77838C32.0366 6.39049 30.9524 5.90563 30.9524 4.9359C30.9524 4.16011 31.5438 3.4813 32.9238 3.4813C34.4023 3.4813 35.6837 4.548 35.9794 4.83892L36.2752 5.12984L36.6694 3.67525L36.4723 3.57827C35.7823 3.19038 34.4023 2.80249 33.0223 2.80249C30.7552 2.80249 29.2767 4.06314 29.2767 5.80865C29.2767 7.74811 31.0509 8.42692 32.3323 9.00876L33.2195 9.39665C34.5995 9.97849 35.4866 10.3664 35.4866 11.3361C35.4866 12.3058 34.5995 12.9847 33.2195 12.9847C31.9381 12.9847 30.7552 12.4028 29.8681 11.4331L29.5724 11.1422L29.0795 12.6937L29.1781 12.7907C30.0652 13.3725 31.5438 13.7604 32.9238 13.7604C35.388 13.7604 37.0637 12.4998 37.0637 10.5603C37.0637 8.42692 35.2894 7.74811 34.008 7.16627Z" fill="#231F20"></path><path d="M51.7506 2.99609H50.075V3.19004C49.9764 4.54766 49.385 6.39015 48.4978 8.7175L48.005 10.0751L45.245 2.99609H44.8507L42.0908 10.1721L39.2322 2.99609H36.768L41.1051 13.7601H41.5979L44.2593 6.77804L46.9207 13.7601H47.4136L49.2864 8.91145C50.2721 6.39015 50.8635 4.93555 51.6521 3.38399L51.7506 2.99609Z" fill="#231F20"></path><path d="M56.7778 2.80273C53.525 2.80273 51.3564 5.03311 51.3564 8.33019C51.3564 11.5303 53.525 13.7607 56.6792 13.7607C59.932 13.7607 62.1006 11.5303 62.1006 8.23322C62.002 4.93614 59.932 2.80273 56.7778 2.80273ZM56.6792 3.48155C58.4535 3.48155 59.6363 5.421 59.6363 8.23322C59.6363 11.0454 58.4535 12.8879 56.6792 12.8879C54.905 12.8879 53.7221 10.9485 53.7221 8.13625C53.7221 5.32403 54.905 3.48155 56.6792 3.48155Z" fill="#231F20"></path><path d="M68.212 2.80273C64.9592 2.80273 62.7906 5.03311 62.7906 8.33019C62.7906 11.5303 64.9592 13.7607 68.1134 13.7607C71.3663 13.7607 73.5348 11.5303 73.5348 8.23322C73.4362 4.93614 71.3663 2.80273 68.212 2.80273ZM68.1134 3.48155C69.8877 3.48155 71.0705 5.421 71.0705 8.23322C71.0705 11.0454 69.8877 12.8879 68.1134 12.8879C66.3392 12.8879 65.1563 10.9485 65.1563 8.13625C65.1563 5.32403 66.3392 3.48155 68.1134 3.48155Z" fill="#231F20"></path><path d="M80.139 2.80273C78.9561 2.80273 77.9704 3.19063 76.9847 4.06338V2.80273H76.7876L74.7176 3.38457V17.7366H76.9847V12.8879C77.7733 13.3728 78.5618 13.6637 79.5475 13.6637C82.5046 13.6637 84.6732 11.2394 84.6732 8.03928C84.6732 5.03311 82.8003 2.80273 80.139 2.80273ZM76.9847 11.2394V5.13009C77.7733 4.3543 78.6604 3.86944 79.5475 3.86944C81.2232 3.86944 82.3075 5.51798 82.3075 8.23322C82.3075 11.0454 81.1246 12.8879 79.3504 12.8879C78.3647 12.8879 77.379 12.3061 76.9847 11.2394Z" fill="#231F20"></path></svg>