<svg xmlns="http://www.w3.org/2000/svg" width="82" height="18" viewBox="0 0 82 18" fill="none"><g clip-path="url(#clip0_6196_17262)"><path d="M20.651 12.2983C20.5068 12.2983 20.3837 12.2432 20.2751 12.1379C20.1682 12.0294 20.1148 11.9046 20.1148 11.7621V11.2437H24.2765V7.55977H20.1148V7.02841C20.1148 6.88585 20.1666 6.76111 20.2751 6.65419C20.3837 6.54727 20.5068 6.49381 20.651 6.49381H26.8685V2.69653H20.6364C19.18 2.69653 18.2323 3.08533 17.445 3.86293C16.7111 4.60651 16.3223 5.48617 16.277 6.50677V12.2983C16.3223 13.3173 16.7111 14.1969 17.445 14.9389C18.2323 15.7165 19.18 16.1037 20.2881 16.1037H26.8702V12.2967H20.651V12.2983Z" fill="#7CB339"></path><path d="M45.5662 2.69482H41.7576V16.1052H45.5662C47.4146 16.1052 48.9957 15.4507 50.3063 14.1417C51.6153 12.8328 52.2714 11.2517 52.2714 9.40162C52.2714 7.54996 51.6153 5.97208 50.3063 4.65988C48.9941 3.3493 47.4146 2.69482 45.5662 2.69482ZM47.6025 11.4461C47.0404 12.0131 46.3616 12.2966 45.5662 12.2966V6.4921C46.3616 6.4921 47.0404 6.7756 47.6025 7.3426C48.1663 7.91122 48.4482 8.5981 48.4482 9.40162C48.4482 10.197 48.1663 10.8774 47.6025 11.4461Z" fill="#1D41EF"></path><path d="M60.0995 2.69482C58.2478 2.69482 56.6683 3.35254 55.3577 4.66474C54.0472 5.98018 53.3943 7.55644 53.3943 9.4C53.3943 11.25 54.0472 12.8295 55.3577 14.1401C56.6683 15.4491 58.2478 16.1036 60.0995 16.1036C61.9495 16.1036 63.5322 15.4491 64.8461 14.1401C66.1599 12.8295 66.8176 11.25 66.8176 9.4C66.8176 7.55644 66.1599 5.98018 64.8461 4.66474C63.5322 3.35254 61.9495 2.69482 60.0995 2.69482ZM62.1439 11.4461C61.5769 12.0131 60.8933 12.2966 60.0995 12.2966C59.304 12.2966 58.6204 12.0131 58.0534 11.4461C57.4864 10.8791 57.2013 10.1906 57.2013 9.38542C57.2013 8.59162 57.4864 7.9096 58.0534 7.34098C58.6204 6.77398 59.304 6.49048 60.0995 6.49048C60.8933 6.49048 61.5753 6.77398 62.1439 7.34098C62.7093 7.9096 62.996 8.59162 62.996 9.38542C62.996 10.1906 62.7093 10.8774 62.1439 11.4461Z" fill="#662395"></path><path d="M79.3991 4.66474C78.0853 3.35254 76.5026 2.69482 74.6525 2.69482C72.8025 2.69482 71.2246 3.35254 69.9124 4.66474C68.6018 5.98018 67.949 7.55644 67.949 9.4C67.949 11.25 68.6018 12.8295 69.9124 14.1401C71.2246 15.4491 72.8025 16.1036 74.6525 16.1036C76.5026 16.1036 78.0853 15.4491 79.3991 14.1401C80.713 12.8295 81.3707 11.25 81.3707 9.4C81.3707 7.55806 80.713 5.98018 79.3991 4.66474ZM76.6986 11.4461C76.13 12.0131 75.448 12.2966 74.6542 12.2966C73.8587 12.2966 73.1767 12.0131 72.6097 11.4461C72.0427 10.8791 71.756 10.1906 71.756 9.38542C71.756 8.59162 72.0427 7.9096 72.6097 7.34098C73.1751 6.77398 73.8587 6.49048 74.6542 6.49048C75.4496 6.49048 76.1316 6.77398 76.6986 7.34098C77.264 7.9096 77.5491 8.59162 77.5491 9.38542C77.5491 10.1906 77.264 10.8774 76.6986 11.4461Z" fill="#FF9600"></path><path d="M39.7617 2.69653H35.9531V8.46859L33.191 3.84511H33.1894C32.7698 3.19711 32.0424 2.76781 31.213 2.76781C29.9121 2.76781 28.8591 3.82243 28.8591 5.12167C28.8591 5.13139 28.8608 5.13949 28.8608 5.14759H28.8591V16.1425H32.6678V10.1485L35.5773 15.0183L35.5789 15.0166C35.9742 15.6679 36.6886 16.1053 37.5067 16.1053C38.7525 16.1053 39.7617 15.096 39.7617 13.8502C39.7617 13.7968 39.7569 13.7449 39.7536 13.6931H39.7617V2.69653Z" fill="#00A1D1"></path><path d="M11.7601 2.69336L10.5484 6.56678L10.5403 6.58622L9.63791 9.3062L8.32409 5.35178C8.10053 4.7702 7.78139 4.28096 7.37153 3.87596C6.59231 3.09026 5.65433 2.6966 4.55597 2.6966H0.859131L1.69991 6.49226H4.25951C4.33079 6.49226 4.48145 6.4793 4.59647 6.5684C4.71149 6.6575 4.77305 6.84218 4.77305 6.8438L7.31159 14.3525H7.31321C7.60643 15.365 8.53793 16.1053 9.64439 16.1053C10.7266 16.1053 11.6419 15.3974 11.9561 14.4189L14.2274 7.64246L15.6773 2.69336H11.7601Z" fill="#DC0079"></path></g><defs><clipPath id="clip0_6196_17262"><rect width="81" height="16.2" fill="white" transform="translate(0.6521 0.899902)"></rect></clipPath></defs></svg>