<svg xmlns="http://www.w3.org/2000/svg" width="22" height="24" viewBox="0 0 22 24" fill="none" class="fill-black-300"><path d="M7.0625 2.66921C6.7144 2.66921 6.38056 2.80964 6.13442 3.05963C5.88828 3.30961 5.75 3.64865 5.75 4.00218C5.75 4.3557 5.88828 4.69475 6.13442 4.94473C6.38056 5.19471 6.7144 5.33515 7.0625 5.33515C7.4106 5.33515 7.74444 5.19471 7.99058 4.94473C8.23672 4.69475 8.375 4.3557 8.375 4.00218C8.375 3.64865 8.23672 3.30961 7.99058 3.05963C7.74444 2.80964 7.4106 2.66921 7.0625 2.66921ZM3.34812 2.66921C3.61929 1.88871 4.12216 1.21285 4.78741 0.734787C5.45267 0.256724 6.24755 0 7.0625 0C7.87745 0 8.67233 0.256724 9.33759 0.734787C10.0028 1.21285 10.5057 1.88871 10.7769 2.66921H20.1875C20.5356 2.66921 20.8694 2.80964 21.1156 3.05963C21.3617 3.30961 21.5 3.64865 21.5 4.00218C21.5 4.3557 21.3617 4.69475 21.1156 4.94473C20.8694 5.19471 20.5356 5.33515 20.1875 5.33515H10.7769C10.5057 6.11565 10.0028 6.79151 9.33759 7.26957C8.67233 7.74763 7.87745 8.00436 7.0625 8.00436C6.24755 8.00436 5.45267 7.74763 4.78741 7.26957C4.12216 6.79151 3.61929 6.11565 3.34812 5.33515H1.8125C1.4644 5.33515 1.13056 5.19471 0.884423 4.94473C0.638281 4.69475 0.5 4.3557 0.5 4.00218C0.5 3.64865 0.638281 3.30961 0.884423 3.05963C1.13056 2.80964 1.4644 2.66921 1.8125 2.66921H3.34812ZM14.9375 10.667C14.5894 10.667 14.2556 10.8075 14.0094 11.0574C13.7633 11.3074 13.625 11.6465 13.625 12C13.625 12.3535 13.7633 12.6926 14.0094 12.9426C14.2556 13.1925 14.5894 13.333 14.9375 13.333C15.2856 13.333 15.6194 13.1925 15.8656 12.9426C16.1117 12.6926 16.25 12.3535 16.25 12C16.25 11.6465 16.1117 11.3074 15.8656 11.0574C15.6194 10.8075 15.2856 10.667 14.9375 10.667ZM11.2231 10.667C11.4943 9.88653 11.9972 9.21067 12.6624 8.73261C13.3277 8.25455 14.1226 7.99782 14.9375 7.99782C15.7524 7.99782 16.5473 8.25455 17.2126 8.73261C17.8778 9.21067 18.3807 9.88653 18.6519 10.667H20.1875C20.5356 10.667 20.8694 10.8075 21.1156 11.0574C21.3617 11.3074 21.5 11.6465 21.5 12C21.5 12.3535 21.3617 12.6926 21.1156 12.9426C20.8694 13.1925 20.5356 13.333 20.1875 13.333H18.6519C18.3807 14.1135 17.8778 14.7893 17.2126 15.2674C16.5473 15.7455 15.7524 16.0022 14.9375 16.0022C14.1226 16.0022 13.3277 15.7455 12.6624 15.2674C11.9972 14.7893 11.4943 14.1135 11.2231 13.333H1.8125C1.4644 13.333 1.13056 13.1925 0.884423 12.9426C0.638281 12.6926 0.5 12.3535 0.5 12C0.5 11.6465 0.638281 11.3074 0.884423 11.0574C1.13056 10.8075 1.4644 10.667 1.8125 10.667H11.2231ZM7.0625 18.6649C6.7144 18.6649 6.38056 18.8053 6.13442 19.0553C5.88828 19.3053 5.75 19.6443 5.75 19.9978C5.75 20.3513 5.88828 20.6904 6.13442 20.9404C6.38056 21.1904 6.7144 21.3308 7.0625 21.3308C7.4106 21.3308 7.74444 21.1904 7.99058 20.9404C8.23672 20.6904 8.375 20.3513 8.375 19.9978C8.375 19.6443 8.23672 19.3053 7.99058 19.0553C7.74444 18.8053 7.4106 18.6649 7.0625 18.6649ZM3.34812 18.6649C3.61929 17.8844 4.12216 17.2085 4.78741 16.7304C5.45267 16.2524 6.24755 15.9956 7.0625 15.9956C7.87745 15.9956 8.67233 16.2524 9.33759 16.7304C10.0028 17.2085 10.5057 17.8844 10.7769 18.6649H20.1875C20.5356 18.6649 20.8694 18.8053 21.1156 19.0553C21.3617 19.3053 21.5 19.6443 21.5 19.9978C21.5 20.3513 21.3617 20.6904 21.1156 20.9404C20.8694 21.1904 20.5356 21.3308 20.1875 21.3308H10.7769C10.5057 22.1113 10.0028 22.7872 9.33759 23.2652C8.67233 23.7433 7.87745 24 7.0625 24C6.24755 24 5.45267 23.7433 4.78741 23.2652C4.12216 22.7872 3.61929 22.1113 3.34812 21.3308H1.8125C1.4644 21.3308 1.13056 21.1904 0.884423 20.9404C0.638281 20.6904 0.5 20.3513 0.5 19.9978C0.5 19.6443 0.638281 19.3053 0.884423 19.0553C1.13056 18.8053 1.4644 18.6649 1.8125 18.6649H3.34812Z"></path></svg>