<svg width="22" height="16" viewBox="0 0 22 16" fill="none" xmlns="http://www.w3.org/2000/svg">
    <path d="M12.7875 14.9187C12.5125 14.6437 12.3805 14.3115 12.3915 13.9219C12.4034 13.5323 12.5469 13.2 12.8219 12.925L16.7062 9.04062H1.375C0.985417 9.04062 0.658625 8.90862 0.394625 8.64462C0.131542 8.38154 0 8.05521 0 7.66562C0 7.27604 0.131542 6.94925 0.394625 6.68525C0.658625 6.42217 0.985417 6.29062 1.375 6.29062H16.7062L12.7875 2.37187C12.5125 2.09687 12.375 1.77008 12.375 1.3915C12.375 1.01383 12.5125 0.6875 12.7875 0.4125C13.0625 0.1375 13.3893 0 13.7679 0C14.1455 0 14.4719 0.1375 14.7469 0.4125L21.0375 6.70312C21.175 6.84062 21.2726 6.98958 21.3304 7.15C21.3872 7.31042 21.4156 7.48229 21.4156 7.66562C21.4156 7.84896 21.3872 8.02083 21.3304 8.18125C21.2726 8.34167 21.175 8.49062 21.0375 8.62812L14.7125 14.9531C14.4604 15.2052 14.1455 15.3313 13.7679 15.3313C13.3893 15.3313 13.0625 15.1937 12.7875 14.9187Z" fill="#222222"></path>
</svg>